# xmcd
#
# Track frame offsets:
# 150
# 73700
# 79596
# 105936
# 181261
# 244671
# 282017
#
# Disc length: 4511 seconds
#
#
# Revision: 0
# Processed by: cddbd v1.5.2PL0 Copyright (c) Steve Scherf et al.
# Submitted via: FreeRIP 2.96 
#
DISCID=4f119d07
DTITLE=Sayers, Dorothy Leigh - Der Tote in der Badewanne
DYEAR=2001
DGENRE=Speech
TTITLE0=18 - Lord Peter
TTITLE1=19 - Als Mr Parker
TTITLE2=20 - Tut mir leid
TTITLE3=21 Er las
TTITLE4=22 - Mr Parker
TTITLE5=23 - Der Mann
TTITLE6=24 - Hören Sie
EXTD=gelesen von Christian Brückner
EXTT0=
EXTT1=
EXTT2=
EXTT3=
EXTT4=
EXTT5=
EXTT6=
PLAYORDER=
